# xmcd CD database file
#
# Track frame offsets:
#	150
#	25840
#	42893
#	68418
#	89635
#	103318
#	116243
#	136963
#	161250
#	187600
#	206227
#	226900
#	253960
#	268088
#	296445
#
# Disc length: 4185 seconds
#
# Revision: 0
# Processed by: cddbd v1.5.1PL0 Copyright (c) Steve Scherf et al.
# Submitted via: CDex 1.51
#
DISCID=d610570f
DTITLE=Everybody loves the sunshine - Evolution
DYEAR=1900
DGENRE=Jazz
TTITLE0=Pretty brown skin
TTITLE1=We live in Brooklin baby
TTITLE2=He's a superstar
TTITLE3=Red black and green
TTITLE4=Coffy is the color
TTITLE5=Fikisha
TTITLE6=Change up the groove
TTITLE7=2000 black
TTITLE8=A tear to a smile
TTITLE9=Evolution
TTITLE10=Spirit of doodo
TTITLE11=Life is just a moment
TTITLE12=The golden rod
TTITLE13=The third eye
TTITLE14=Everybody loves the sunshine
EXTD=
EXTT0=
EXTT1=
EXTT2=
EXTT3=
EXTT4=
EXTT5=
EXTT6=
EXTT7=
EXTT8=
EXTT9=
EXTT10=
EXTT11=
EXTT12=
EXTT13=
EXTT14=
PLAYORDER=
